<svg width="34" height="36" viewBox="0 0 34 36" fill="none" xmlns="http://www.w3.org/2000/svg">
<path d="M7.26799 35.42C7.26799 35.0213 7.19133 34.822 7.03799 34.822L5.97999 35.328C5.97999 35.1133 5.85733 34.96 5.61199 34.868L5.24399 34.822C4.99866 34.822 4.69199 34.9293 4.32399 35.144C4.26266 34.9907 4.18599 34.8373 4.09399 34.684C4.00199 34.5307 3.92533 34.3927 3.86399 34.27C3.46533 33.5033 3.06666 32.66 2.66799 31.74C2.29999 30.7893 1.94733 29.8847 1.60999 29.026C1.30333 28.1673 1.05799 27.4927 0.873992 27.002C0.751325 26.6033 0.613325 26.0053 0.459992 25.208C0.306658 24.4107 0.153325 23.3987 -8.17329e-06 22.172C0.337325 22.3867 0.597992 22.494 0.781992 22.494C0.996659 22.494 1.19599 22.172 1.37999 21.528C1.47199 21.6507 1.64066 21.712 1.88599 21.712C2.06999 21.712 2.20799 21.6507 2.29999 21.528L3.03599 20.424L3.86399 20.7H3.90999C3.97133 20.7 4.03266 20.6693 4.09399 20.608C4.15533 20.5467 4.24733 20.4853 4.36999 20.424C4.61533 20.2707 4.79933 20.194 4.92199 20.194L5.05999 20.24C5.82666 20.608 6.31733 21.2827 6.53199 22.264C7.08399 24.5947 7.63599 25.76 8.18799 25.76C8.73999 25.76 9.38399 25.1773 10.12 24.012C10.488 23.4293 10.856 22.7547 11.224 21.988C11.6227 21.2213 12.0213 20.3627 12.42 19.412C12.4813 19.78 12.5427 19.964 12.604 19.964C12.7573 19.964 13.018 19.5807 13.386 18.814C13.7847 18.0473 14.4133 16.9893 15.272 15.64C15.7627 14.812 16.376 13.8767 17.112 12.834C17.8787 11.7913 18.6913 10.718 19.55 9.614C20.4087 8.50999 21.2367 7.46733 22.034 6.48599C22.862 5.50466 23.598 4.66133 24.242 3.95599C24.886 3.25066 25.3613 2.79066 25.668 2.576C26.8333 1.77866 27.7533 1.01199 28.428 0.275995C28.3973 0.490661 28.3513 0.689994 28.29 0.873995C28.2593 1.02733 28.244 1.13466 28.244 1.19599C28.244 1.31866 28.3053 1.37999 28.428 1.37999L29.716 0.735994V0.919995C29.716 1.16533 29.7773 1.288 29.9 1.288C29.992 1.288 30.176 1.15 30.452 0.873995C30.728 0.597995 30.8813 0.398662 30.912 0.275995L30.82 0.919995L32.384 -4.41074e-06L32.016 0.827996C32.5067 0.490661 32.8593 0.321994 33.074 0.321994C33.1967 0.321994 33.2887 0.398661 33.35 0.551994C33.4113 0.674661 33.442 0.797328 33.442 0.919995C33.442 1.10399 33.3653 1.31866 33.212 1.56399C33.0587 1.80933 32.8593 2.10066 32.614 2.43799C32.43 2.68333 32.1233 3.05133 31.694 3.54199C31.2953 4.002 30.682 4.692 29.854 5.61199C29.026 6.50133 27.922 7.74333 26.542 9.338C26.174 9.73666 25.6067 10.442 24.84 11.454C24.0733 12.4353 23.1993 13.5853 22.218 14.904C21.2673 16.192 20.3167 17.4953 19.366 18.814C18.4153 20.1327 17.572 21.3287 16.836 22.402C16.1 23.4447 15.5787 24.2267 15.272 24.748L12.42 29.578C11.8067 30.6207 11.3007 31.4793 10.902 32.154C10.5033 32.798 10.1967 33.2427 9.98199 33.488C9.52199 34.04 9.01599 34.5307 8.46399 34.96L8.04999 34.73L7.68199 34.96L7.26799 35.42Z" fill="#34C759"/>
</svg>
