<svg width="32" height="34" viewBox="0 0 32 34" fill="none" xmlns="http://www.w3.org/2000/svg">
<path d="M6.95198 33.8798C6.95198 33.4985 6.87865 33.3078 6.73198 33.3078L5.71998 33.7918C5.71998 33.5865 5.60265 33.4398 5.36798 33.3518L5.01598 33.3078C4.78132 33.3078 4.48798 33.4105 4.13598 33.6158C4.07732 33.4692 4.00398 33.3225 3.91598 33.1758C3.82798 33.0292 3.75465 32.8972 3.69598 32.7798C3.31465 32.0465 2.93332 31.2398 2.55198 30.3598C2.19998 29.4505 1.86265 28.5852 1.53998 27.7638C1.24665 26.9425 1.01198 26.2972 0.835981 25.8278C0.718648 25.4465 0.586648 24.8745 0.439982 24.1118C0.293315 23.3492 0.146648 22.3812 -1.84327e-05 21.2078C0.322648 21.4132 0.571982 21.5158 0.747982 21.5158C0.953315 21.5158 1.14398 21.2078 1.31998 20.5918C1.40798 20.7092 1.56932 20.7678 1.80398 20.7678C1.97998 20.7678 2.11198 20.7092 2.19998 20.5918L2.90398 19.5358L3.69598 19.7998H3.73998C3.79865 19.7998 3.85732 19.7705 3.91598 19.7118C3.97465 19.6532 4.06265 19.5945 4.17998 19.5358C4.41465 19.3892 4.59065 19.3158 4.70798 19.3158L4.83998 19.3598C5.57332 19.7118 6.04265 20.3572 6.24798 21.2958C6.77598 23.5252 7.30398 24.6398 7.83198 24.6398C8.35998 24.6398 8.97598 24.0825 9.67998 22.9678C10.032 22.4105 10.384 21.7652 10.736 21.0318C11.1173 20.2985 11.4986 19.4772 11.88 18.5678C11.9386 18.9198 11.9973 19.0958 12.056 19.0958C12.2026 19.0958 12.452 18.7292 12.804 17.9958C13.1853 17.2625 13.7866 16.2505 14.608 14.9598C15.0773 14.1678 15.664 13.2732 16.368 12.2758C17.1013 11.2785 17.8786 10.2518 18.7 9.19585C19.5213 8.13985 20.3133 7.14251 21.076 6.20385C21.868 5.26518 22.572 4.45851 23.188 3.78385C23.804 3.10918 24.2586 2.66918 24.552 2.46385C25.6666 1.70118 26.5466 0.967846 27.192 0.263846C27.1626 0.469179 27.1186 0.659846 27.06 0.835847C27.0306 0.982513 27.016 1.08518 27.016 1.14385C27.016 1.26118 27.0746 1.31985 27.192 1.31985L28.424 0.703846V0.879846C28.424 1.11451 28.4826 1.23185 28.6 1.23185C28.688 1.23185 28.864 1.09985 29.128 0.835847C29.392 0.571847 29.5387 0.38118 29.568 0.263846L29.48 0.879846L30.976 -0.000152826L30.624 0.791847C31.0933 0.46918 31.4306 0.307846 31.636 0.307846C31.7533 0.307846 31.8413 0.381179 31.9 0.527846C31.9587 0.645179 31.988 0.762513 31.988 0.879846C31.988 1.05585 31.9147 1.26118 31.768 1.49585C31.6213 1.73051 31.4306 2.00918 31.196 2.33185C31.02 2.56651 30.7266 2.91851 30.316 3.38785C29.9346 3.82785 29.348 4.48785 28.556 5.36785C27.764 6.21851 26.708 7.40651 25.388 8.93185C25.036 9.31318 24.4933 9.98785 23.76 10.9558C23.0266 11.8945 22.1906 12.9945 21.252 14.2558C20.3426 15.4878 19.4333 16.7345 18.524 17.9958C17.6146 19.2572 16.808 20.4012 16.104 21.4278C15.4 22.4252 14.9013 23.1732 14.608 23.6718L11.88 28.2918C11.2933 29.2892 10.8093 30.1105 10.428 30.7558C10.0466 31.3718 9.75332 31.7972 9.54798 32.0318C9.10798 32.5598 8.62398 33.0292 8.09598 33.4398L7.69998 33.2198L7.34798 33.4398L6.95198 33.8798Z" fill="#34C759"/>
</svg>
